<mxfile host="app.diagrams.net" modified="2024-03-12T16:20:25.906Z" agent="Mozilla/5.0 (Windows NT 10.0; Win64; x64) AppleWebKit/537.36 (KHTML, like Gecko) Chrome/122.0.0.0 Safari/537.36" etag="pwSLfPLn5446tups4AuV" version="24.0.1" type="device">
  <diagram id="prtHgNgQTEPvFCAcTncT" name="Page-1">
    <mxGraphModel dx="1120" dy="468" grid="1" gridSize="10" guides="1" tooltips="1" connect="1" arrows="1" fold="1" page="1" pageScale="1" pageWidth="827" pageHeight="1169" math="0" shadow="0">
      <root>
        <mxCell id="0" />
        <mxCell id="1" parent="0" />
        <mxCell id="FBSGdRuwT_R0u97mZ7oI-26" value="&lt;div&gt;&lt;b&gt;&lt;br&gt;&lt;/b&gt;&lt;/div&gt;&lt;div style=&quot;&quot;&gt;&lt;b&gt;&lt;br&gt;&lt;/b&gt;&lt;/div&gt;&lt;div style=&quot;&quot;&gt;&lt;b&gt;&lt;br&gt;&lt;/b&gt;&lt;/div&gt;&lt;b&gt;configurations-bootcamp&lt;/b&gt;" style="rounded=0;whiteSpace=wrap;html=1;strokeColor=#CC0000;" vertex="1" parent="1">
          <mxGeometry x="569" y="520" width="170" height="70" as="geometry" />
        </mxCell>
        <mxCell id="FBSGdRuwT_R0u97mZ7oI-24" value="" style="line;strokeWidth=4;html=1;perimeter=backbonePerimeter;points=[];outlineConnect=0;strokeColor=#FFD966;" vertex="1" parent="1">
          <mxGeometry x="658" y="798" width="131" height="10" as="geometry" />
        </mxCell>
        <mxCell id="FBSGdRuwT_R0u97mZ7oI-22" value="" style="rounded=0;whiteSpace=wrap;html=1;strokeColor=#009900;fillColor=#66CC00;" vertex="1" parent="1">
          <mxGeometry x="785" y="588" width="180" height="240" as="geometry" />
        </mxCell>
        <mxCell id="FBSGdRuwT_R0u97mZ7oI-16" value="" style="line;strokeWidth=4;html=1;perimeter=backbonePerimeter;points=[];outlineConnect=0;rotation=-90;strokeColor=#00CC00;" vertex="1" parent="1">
          <mxGeometry x="458.43" y="911.56" width="83.13" height="10" as="geometry" />
        </mxCell>
        <mxCell id="FBSGdRuwT_R0u97mZ7oI-13" value="" style="line;strokeWidth=4;html=1;perimeter=backbonePerimeter;points=[];outlineConnect=0;strokeColor=#00CC00;" vertex="1" parent="1">
          <mxGeometry x="320" y="788" width="120" height="10" as="geometry" />
        </mxCell>
        <mxCell id="-VIDzHowxfpOgBwGngfr-1" value="customer service" style="shape=process;whiteSpace=wrap;html=1;backgroundOutline=1;" parent="1" vertex="1">
          <mxGeometry x="280" y="1020" width="120" height="60" as="geometry" />
        </mxCell>
        <mxCell id="-VIDzHowxfpOgBwGngfr-2" value="bank-account-management-ms" style="shape=process;whiteSpace=wrap;html=1;backgroundOutline=1;" parent="1" vertex="1">
          <mxGeometry x="440" y="1020" width="120" height="60" as="geometry" />
        </mxCell>
        <mxCell id="-VIDzHowxfpOgBwGngfr-3" value="credit-product-management-ms" style="shape=process;whiteSpace=wrap;html=1;backgroundOutline=1;" parent="1" vertex="1">
          <mxGeometry x="600" y="1020" width="120" height="60" as="geometry" />
        </mxCell>
        <mxCell id="-VIDzHowxfpOgBwGngfr-4" value="MongoDB" style="shape=cylinder3;whiteSpace=wrap;html=1;boundedLbl=1;backgroundOutline=1;size=15;strokeColor=#009900;fillColor=#66FF66;" parent="1" vertex="1">
          <mxGeometry x="310" y="1160" width="60" height="80" as="geometry" />
        </mxCell>
        <mxCell id="-VIDzHowxfpOgBwGngfr-5" value="MongoDB" style="shape=cylinder3;whiteSpace=wrap;html=1;boundedLbl=1;backgroundOutline=1;size=15;strokeColor=#009900;fillColor=#66FF66;" parent="1" vertex="1">
          <mxGeometry x="470" y="1160" width="60" height="80" as="geometry" />
        </mxCell>
        <mxCell id="-VIDzHowxfpOgBwGngfr-6" value="MongoDB" style="shape=cylinder3;whiteSpace=wrap;html=1;boundedLbl=1;backgroundOutline=1;size=15;strokeColor=#009900;fillColor=#66FF66;" parent="1" vertex="1">
          <mxGeometry x="630" y="1160" width="60" height="80" as="geometry" />
        </mxCell>
        <mxCell id="-VIDzHowxfpOgBwGngfr-7" value="" style="endArrow=classic;startArrow=classic;html=1;rounded=0;exitX=0.5;exitY=0;exitDx=0;exitDy=0;exitPerimeter=0;" parent="1" source="-VIDzHowxfpOgBwGngfr-4" edge="1">
          <mxGeometry width="50" height="50" relative="1" as="geometry">
            <mxPoint x="290" y="1130" as="sourcePoint" />
            <mxPoint x="340" y="1080" as="targetPoint" />
          </mxGeometry>
        </mxCell>
        <mxCell id="-VIDzHowxfpOgBwGngfr-8" value="" style="endArrow=classic;startArrow=classic;html=1;rounded=0;exitX=0.5;exitY=0;exitDx=0;exitDy=0;exitPerimeter=0;" parent="1" edge="1">
          <mxGeometry width="50" height="50" relative="1" as="geometry">
            <mxPoint x="500" y="1160" as="sourcePoint" />
            <mxPoint x="500" y="1080" as="targetPoint" />
          </mxGeometry>
        </mxCell>
        <mxCell id="-VIDzHowxfpOgBwGngfr-9" value="" style="endArrow=classic;startArrow=classic;html=1;rounded=0;exitX=0.5;exitY=0;exitDx=0;exitDy=0;exitPerimeter=0;" parent="1" edge="1">
          <mxGeometry width="50" height="50" relative="1" as="geometry">
            <mxPoint x="659.5" y="1160" as="sourcePoint" />
            <mxPoint x="659.5" y="1080" as="targetPoint" />
          </mxGeometry>
        </mxCell>
        <mxCell id="cHgR2R6nMw6774OHP170-1" value="commission-management-sm" style="shape=process;whiteSpace=wrap;html=1;backgroundOutline=1;" parent="1" vertex="1">
          <mxGeometry x="761" y="1019" width="120" height="60" as="geometry" />
        </mxCell>
        <mxCell id="cHgR2R6nMw6774OHP170-2" value="MongoDB" style="shape=cylinder3;whiteSpace=wrap;html=1;boundedLbl=1;backgroundOutline=1;size=15;strokeColor=#009900;fillColor=#66FF66;" parent="1" vertex="1">
          <mxGeometry x="791" y="1159" width="60" height="80" as="geometry" />
        </mxCell>
        <mxCell id="cHgR2R6nMw6774OHP170-3" value="" style="endArrow=classic;startArrow=classic;html=1;rounded=0;exitX=0.5;exitY=0;exitDx=0;exitDy=0;exitPerimeter=0;" parent="1" edge="1">
          <mxGeometry width="50" height="50" relative="1" as="geometry">
            <mxPoint x="820.5" y="1159" as="sourcePoint" />
            <mxPoint x="820.5" y="1079" as="targetPoint" />
          </mxGeometry>
        </mxCell>
        <mxCell id="cHgR2R6nMw6774OHP170-4" value="report-management-sm" style="shape=process;whiteSpace=wrap;html=1;backgroundOutline=1;" parent="1" vertex="1">
          <mxGeometry x="921" y="1019" width="120" height="60" as="geometry" />
        </mxCell>
        <mxCell id="cHgR2R6nMw6774OHP170-5" value="MongoDB" style="shape=cylinder3;whiteSpace=wrap;html=1;boundedLbl=1;backgroundOutline=1;size=15;strokeColor=#009900;fillColor=#66FF66;" parent="1" vertex="1">
          <mxGeometry x="951" y="1159" width="60" height="80" as="geometry" />
        </mxCell>
        <mxCell id="cHgR2R6nMw6774OHP170-6" value="" style="endArrow=classic;startArrow=classic;html=1;rounded=0;exitX=0.5;exitY=0;exitDx=0;exitDy=0;exitPerimeter=0;" parent="1" edge="1">
          <mxGeometry width="50" height="50" relative="1" as="geometry">
            <mxPoint x="980.5" y="1159" as="sourcePoint" />
            <mxPoint x="980.5" y="1079" as="targetPoint" />
          </mxGeometry>
        </mxCell>
        <mxCell id="cHgR2R6nMw6774OHP170-8" value="" style="endArrow=none;html=1;rounded=0;strokeColor=#0000FF;" parent="1" edge="1">
          <mxGeometry width="50" height="50" relative="1" as="geometry">
            <mxPoint x="499.5" y="1019" as="sourcePoint" />
            <mxPoint x="499.5" y="959" as="targetPoint" />
          </mxGeometry>
        </mxCell>
        <mxCell id="cHgR2R6nMw6774OHP170-9" value="" style="endArrow=none;html=1;rounded=0;strokeColor=#0000FF;" parent="1" edge="1">
          <mxGeometry width="50" height="50" relative="1" as="geometry">
            <mxPoint x="659.5" y="1020" as="sourcePoint" />
            <mxPoint x="659.5" y="960" as="targetPoint" />
          </mxGeometry>
        </mxCell>
        <mxCell id="cHgR2R6nMw6774OHP170-11" value="" style="endArrow=none;html=1;rounded=0;strokeColor=#0000FF;" parent="1" edge="1">
          <mxGeometry width="50" height="50" relative="1" as="geometry">
            <mxPoint x="340.5" y="1019" as="sourcePoint" />
            <mxPoint x="340.5" y="959" as="targetPoint" />
          </mxGeometry>
        </mxCell>
        <mxCell id="cHgR2R6nMw6774OHP170-12" value="" style="endArrow=none;html=1;rounded=0;strokeColor=#0000FF;" parent="1" edge="1">
          <mxGeometry width="50" height="50" relative="1" as="geometry">
            <mxPoint x="820.5" y="1019" as="sourcePoint" />
            <mxPoint x="820.5" y="959" as="targetPoint" />
          </mxGeometry>
        </mxCell>
        <mxCell id="cHgR2R6nMw6774OHP170-13" value="" style="endArrow=none;html=1;rounded=0;strokeColor=#0000FF;" parent="1" edge="1">
          <mxGeometry width="50" height="50" relative="1" as="geometry">
            <mxPoint x="978.5" y="1019" as="sourcePoint" />
            <mxPoint x="978.5" y="959" as="targetPoint" />
          </mxGeometry>
        </mxCell>
        <mxCell id="cHgR2R6nMw6774OHP170-17" value="" style="line;strokeWidth=4;html=1;perimeter=backbonePerimeter;points=[];outlineConnect=0;" parent="1" vertex="1">
          <mxGeometry x="340" y="954" width="640" height="10" as="geometry" />
        </mxCell>
        <mxCell id="FBSGdRuwT_R0u97mZ7oI-2" value="" style="shape=image;verticalLabelPosition=bottom;labelBackgroundColor=default;verticalAlign=top;aspect=fixed;imageAspect=0;image=data:image/png,iVBORw0KGgoAAAANSUhEUgAAAJsAAAEGCAYAAABy7uelAAAe40lEQVR4Ae2d93cTVx7F9//Zc/bsD0l2k4WQBBJ2ExIglCWNhIRUSAFy2ACBFEjZTdkUSOg1kKW4N4yxcS/YGNvggm1sDLg32bJsyYW7537DOMIxskaSJ4z8nXOeJc28Mrrvo/t972k8+kN7by80qQZWMPAHKxrRNhRmMqCwqbNbFtkUNoVNYdPQG36hV51NnU2dTZ1tijpbW08PNKkG3gwEYgZ+hdGO3l50Op2aVANhoMPpDCj0+gVbb38/XB4P+jWpBh4P+txu0IDMutuEsLFSl9uN4ZERjNy4oUk1wODQ0OTCduPGDeimCpCDoeFhhU1RmHwFFLbJ11hbuKmAwqYoWKaAwmaZ1NqQwqYMWKaAwmaZ1NqQwqYMWKaAwmaZ1NqQwqYMWKaAwmaZ1NqQwqYMWKaAwmaZ1NqQwqYMWKaAwmaZ1NqQwqYMWKaAwmaZ1NqQwqYMWKaAwmaZ1NqQwqYMWKaAwmaZ1NqQwqYMWKaAwmaZ1NpQWMNmvDn+zyqfm91YZnh4GCMjIwGVN9teuOc3+mNS/0k5kI4OVni22e/2oPrqVbR1dwkwZupk+QGPB3VNTWjqaMeNkREzxTXvOAqELWxDQ0MC2pFTyYjJzEC/e2Cct3/7XXS0qy0t+N/pFESkn0F3b+/tM+sRvxQIS9gY9tq6uhCdmYEfIyNw9HQK+vr7JRQypPraKAjLE9a6xkbsT4jHjugonDl3Tm4j4ausHvOtQFjCNuB2o/hSFfbExWJfQjwu1NbKv/139faiuaNDxmHjyULIel0uCZuEs9fVh/TiYoFtb3wcWru7/B67Udi+vj5UVVVJ4uuJNmm/txf19fWorq5GTU0NamtrJfE59/F1b2+v6WHBRG1bcTwsYetwOBCblYldMTFIKSgQVyOA6cXnEJ+TjU6HQ25yM1ZgjtHK6+uQkJuDstoauD0etHZ24ueUU9geFYmcslK/3Y3gEI7Vq1dj1apV4pRj2xv7enBwEKWlpfjqq6/w/vvvY+PGjVi/fj3WrVuHTZs2SdqyZQvKysrAvHbbwg423jHpSnMzDp1Mwr74ONRcvSp3zuFEgU5Hh7rS1CTu1s/bNzkcMh7zDA7C5R4QR2ToPHEmTVzQPTiIzPPnBTaO/zxDQ371MWErLi7GjBkzMHv27N/AweMEhuHa2DwezyhshGvt2rV46KGHMH36dHzwwQcC2yeffCKweZczyt/pjwZsvF/fpN0yy58QEiqh3IMeXKy7LKAROMLE2zSdzMuT8Vt0Rjp6+vow4HGLeyXl5SK1qBB1TY0gfJwUHE89LeVLaqpB2CqvXBHYdsVES5j151wN2AjL8uXLR6Hi/vb2dgExJSUFaWlpqKiokNDISQlDJMMow2ZhYSEeffRRAfbSpUthEUbZF60OB5q7ukwlv+/PZiVsroEBnKuqFAc7lnpawPIMekBXYigsrCiX8VtTRwd4nBOIndFRSM7PQ4ejW1zuVEGBwJZZcl4A5DiPZTlR4MTDn/djwDZr1iy8/fbbAhvLEbQdO3Zg2bJlkpYuXYqVK1ciNjYW3d3dt3Dc2tqKefPmgXUQRLtvfP8czlxquIKK+jpU1Nf7ne5I2DiwP1teLrBw3OZ0uWTsdTApETuiIsWl+OmqvX5dZprbIk5g24njiLgZNul6nHkylGaeLxbYHE6nwEYoG9vaxh3vjQXBG7a33npLYGPoO3z4MObMmYM1a9bgyJEj+P7777F48WK89NJLyMjIgNvtHq2qubkZc+fOxcyZM8MGNvZPUflF5JWVIL+s1O90R8LG9bTiqkqB7Vha6k1nG5S1MrrTWTrb0BDau7sQlX4G2yMjsCs2RiYPXEtrdzgQn50tsHFGy7EcF3W9nW2i5RPSMh5sLpcL8+fPx4IFC1BZWQmn0wm616FDh7Bw4UJ8/vnnaGxsDGvYOFS5dLVBnK2yvg7+pjsSNs4gL16+OWZLSkR7d7fAlVVaIsBEpqfB2d8vEJXX1WFffLzMNq+1tooDciJxKCkJdEKus3FCcLGubtTZuDRiNowaztbQ0CCDfQ78jZBJKPPz87FkyRKsWLECHJsZWzg6G+88yTuHc9xmJt2RsLHzGlpaRmej1deuyhitpasTHODvjo2RTxUdq/baNexPSJCxW0tnJxguuTzCWSuXSLqdveAMUWajkRE4fDJJwDVg8PU4nrNxzW3atGnYsGEDHA7HaPGioiKBjRMJThaMLVxhC5vvRuk6nT09ss7GMVZibq58x8nOL6qoQHJBvjgYQymXRbxhY9nrbW1IKyoSYLmMwtnsgcQEcbZcrrP5OVAfD7a2tjaB7eWXX5aJAqFivqysLBm3cU2Oi7bGprD9elfxO9LZ2FEMpWW1tdgTHyfjscLKSoGE8HBywI12PhY27mfnMw8fObmIy8kW0OiI3U6nlPXnz3iw0SU5EeCAn8se/f39uHLlCjZv3izjuP3796Ozs3O0+qamprCbIITlDZwZEvlNAAf2nFl29Pwattibt4PN6GmG2bKaGgm7DL/55Rf9GqsZ5Qnb+fPnZVGWcHEBl/syMzNlkZeLvYsWLZJ1NK7F8dsCb1djPXQ2Tia4KOyvoxrt34mPjBxhCRs7tqm9HSfSUnG68OxvxloTwUZhWru6EJl+Bom5OeKWZjqQcBCerVu3SuJr1kl3KykpkZknv8YiZMeOHZNZKI97b5yt/u9//8OBAwcEVO9jdnwetrCxMxgOWzo60Nf/2xnkRLCx/C9LJN3ocTpNuRrLUli6Gb8RIDQGSHwkeD09PRIyOStlOOWHY+zGfVwu4Rf6Rvmxeez0mu8hLJ3N6AR22HgdZcDGq0J4CRJno+NtLDte+fHy6j7fCoQ9bLd7+wLbtWuynnY8LVWu7rhdXt0fGgWmLGycmfI7T16vlnvhgqyxhUZSreV2CkxZ2PjGOePkV1SOvj4ZS9xOJN0fGgWmLGyhkU9rMaOAwmZGLc0blAIKW1DyaWEzCihsZtTSvEEpoLAFJZ8WNqOAwmZGLc0blAIKW1DyaWEzCihsZtTSvEEpoLAFJZ8WNqOAwmZGLc0blAIKW1DyaWEzCihsZtTSvEEpoLAFJZ8WNqOAwmZGLc0blAIKW1DyaWEzCihsZtTSvEEpoLAFJZ8WNqOAwmZGLc0blAIKW1DyaWEzCihsZtTSvEEpoLAFJZ8WNqOAwmZGLc0blAIKW1DyaWEzCihsZtTSvEEpMOmw9bndcqtQ3i5Uk2rgHhrCpNx50uwPK2j+X++0qFrcqsWEd55UwW4VTPUIXA+Fjbey12SJBgqbgmYJaPxAK2wKm8KmoS38wrs6mzqbOps6mzqbZZ8ChU1hU9g07AbMgI7ZFJ6A4TEbfRQ2hU1hM/up0fx3/hhPnU2dTZ1NnerOdyqzfeSXs3U6nejs60OXJtWADDidAbnhhLDxIjmX2y2/OMerNDVNbQ34o3X8pcRJuXjSgI2Q6aYKTPpl4XQ2hU1BowIKm3JgmQIKm2VSa0MKmzJgmQIKm2VSa0MKmzJgmQIKm2VSa0MKmzJgmQIKm2VSa0MKmzJgmQIKm2VSa0MKmzJgmQIKm2VSa0MKmzJgmQIKm2VSa0MKmzJgmQIKm2VSa0MKmzJgmQIKm2VSa0MKmzJgmQIKm2VSa0MKmzJgmQIKm2VSa0NhAxv/AXbA44Gzvx+9LpfP5HS54PZ45J+nFQHrFAgL2IZHRtDZ04Pz1ZdwuvAskvLzfKaUswWS1+HsVeCsYy08/m+UblZYWYFDJ5OwPSoSO6KjJkwHEuJxrqoS/W63hXJP7abCwtk6HA4k5+dhZ3QUfoyM8CvtiIpEYm4OevqcdwQBHAa43W4MDAxgeHj4tufEDhscHBzNw7z9/f2SfJW7bYUWHggL2Nq7u5GQmyOuRtjobr6SkSc2KxMOp/+wsZONROHGbgRmiL8+6PFIvvHyjC1jvL5y5Qq+/vprfPrpp6irqzN23/LI+pxOJ+Lj43Hx4kWBs6qqCmvWrMG6detQXV19S/477UXYwEaX2hUbjZ+STyIqIx0xWZmIHifFZGbgyKlkcUEzsBGiF154AXfddRcefvhh1NTU3HIPEwpZXl6O1157DX/605/w5JNP4vLly373N8u+8sorePbZZ1FWVjZuOTpXVlYWZs6cKYC1tLSgtLQUS5cuxauvvoqKiopxy90pO8MGtvicbBxMSkRRZSVcDEUjw+MmOlNJdTX2xMUiJtN/ZzNgu/vuuzF9+nQcOXIEfX19o/1IN0tJScG8efPwxz/+cVzYCAvzMVyyPopvbGNhG88hmb+3txfHjh1DUVGR1HM72KRjh4YkD9+zd1tGm1Y/yjkND9v7llkMo4TtUFIiii9VoX9g4LY6ssPLamuxNwDYXnzxRfz973/HE088Ic7S3Nw82k5jYyO+//57LFy4EI888giWLFmC2tpaOU6Re3p6kJubi4MHD2LPnj04ffo02traBDpmoivRnehszJeWloZ9+/YhMTFR8rEOJsKWnZ0t+QnteLARVLpecnIydu/ejePHj4vLMj/r+L02tj0UVrBV+YaNb7astiYg2JYtW4bZs2fj448/xuLFi3Hu3DkZqHOsRqd57733BEKCZsBGgTnO+vLLLwVUOt/cuXMxZ84crF+/HhxzEQ7C9sYbb0iIfuuttwS6xx9/XMqsXbtWIGM7lZWVWLRoEf7973+js7NzFDaGYNbBujiee/fdd8HyRnt8fvLkyVG4fw/gpiRspUHAxvHaqVOnsGDBAuzatQsOh0PC6YkTJwQ0OsnLL78sMNLZGDZjY2Nx//33y/HCwkIwbd68GY899hi+/fZbtLa2CigrVqzAjBkz8P777yMnJ0fGZ2+++absS0hIkDXBCxcuyJht48aNaG9v/w1sTU1N+OKLLySMb9++XY4b50vX5fHfy92mJmw1gTvbrFmzJCRxIkAHqq+vl/TZZ5/ho48+QmpqKlauXCnuQ9gII/NyYkHnoTtJKC8rE2A5uOd4jceYjxAzhDLkEdTMzEzcd9990hbL0bUI/KZNm26BzZggFBcX46mnnhJn5bmUlJRI2rBhA+655x6BmO73e2wKm59LH+wgzkYfeughGQ/RNdipBINArFq1Cvv375eOpUPRRQhbR0eHhEIC493J165dk7DJcHz27FmB7fXXX5c2CJSxcew1bdo0Acwf2DhbZch88MEHZXbL0Mx6ea4cbzKUcsLwe2wKm0nY2IldXV0CyNNPPw062jfffIPVq1fLwJ1rXexcAzaOq9jJBGYi2Ohszz//PBgqjY2TCJZ94IEHxBF9ORvHc5w8cEw4f/58/Pe//8XWrVtl4vLDDz/IxMQY1xn1W/k4JWErqQl86YOd3t3dDToTASNUBITQ0cm4/kZoDNg4C2VYZQjjzJHA0aEY7uhqnOESACOMcn2OSygMo3SgvLw83HvvvVi+fPmEsLEOY3bKWW1BQYGMBwksE2fM/LaBnf57bAqbCWd77rnnZI2NsHEstnfvXhm807mOHj0q++hsnCDQWQgex11xcXGSjyv9Rtj95JNPZKZIx+FAn47FkMcFWw7+uTTCvCxDN42IiBidIPA1x2AEiHA988wzAiPHfpxsfPfddzJB2LJlCzIyMiS0c7bMiYq3u1oNnMJmAjYuJ3DsQ7cy3InLIYSEA3Hu44SBIHAfv4KiwISTSxV0Lbog3YwhmMARTgLAR35V9fbbb8uSCN2QY0Quc3z44YeyzMHJBfMReoZIhmi6GScqXB4x6uJyCkHj8gvPj07LPO+8845892o1ZEZ7UxO2AL5BYEdzyYJOYQywCR1DFdfbuNjKjWtqfM3wx+fGxiUHfqdJJ9u5c6cs1jIUG3XRKTlWIzyEhm7IxV+WaWhoEGjZWWyTExK6GEMtJyB0wPT0dBlLsj3WybqTkpJkUZfLMawvPz9fnc3okEAfzXyDwEXd0gBgY0ezExkW+ZwbAeQ+OtPYfczH494bx0ucXBAsXt3hvRl10R1ZF/Myn/cYi/uZj3WzXb5mfuZh4nPvjW2wDqM97/P0zmfVc55v2HyDIN+NVlTA2e+SN8Wfrhmb3IODOFdVZfq7Uas6JJzbCRvYEnKy5SsoXsmRd/GCXEzJCyqLKitGn/N1QXk54rKzsSsmWq4MMXOJUTiDYMV7Cx/Ybl7Ptt3rejYCdSz1NI6nnv7lyt0x17mZucTIis4I9zbCBrak3Fzw6lvjwshtESdwOPmkXBw54HYLbMYFlUaeuOwsUxdPhjsMk/3+wgK2nr4+5JSVYm98HH6IOCHA8ZH/Z1DVcAWXrl7F9uhfQCRoTLtjY6QMr33TzRoFwgI2znAaWlrkmrZ98XEy+Of1aoSPk4ZDSUkyntvL5YSb+2OzstDY3g7+Z5Zu1igQFrBxIYLQ8P9FG9vaUN/UdDM1oq7xl/TrviZca2tFH5cKFDRrKLvZSljA5q0Y16G43uQrjV3/8i6vzydPgbCDbfKk0pqDVUBhC1ZBLe+3Agqb31JpxmAVUNiCVVDL+62Awua3VJoxWAUUtmAV1PJ+K6Cw+S2VZgxWAYUtWAW1vN8KKGx+S6UZg1VAYQtWQS3vtwIKm99SacZgFVDYglVQy/utgMLmt1SaMVgFFLZgFdTyfiugsPktlWYMVgGFLVgFtbzfCihsfkulGYNVQGELVkEt77cCCpvfUmnGYBWYdNj6eJ+x4WG5HQL/C0rT1NbAMzg4Obemb+/tRXdfHxwuFxy8UYqmKa1BD/vf5QK5MJv+YLaA5jcvsmr2i2YKWwCfUIUnsA+cwqawmQ6HgX7YFDaFTWEL9NOj5QILcVbops6mzqbOZsUnTduw1gXV2dTZ1NnUdax1HSv0VmdTZ1Nns+KTpm1Y655+OVu3ywV+J9bDR01TXoNJ+260o7cXvOqDV3r4uhOkHpsa+pCDSbvqg7C53O7Rn9oJ9nooLW9vBSb9ejaFzd6AhPLsFbZQqql1+VRAYfMpjx4MpQIKWyjV1Lp8KqCw+ZRHD4ZSAYUtlGpqXT4VUNh8yqMHQ6mAwhZKNbUunwoobD7l0YOhVEBhC6WaWpdPBRQ2n/LowVAqoLCFUk2ty6cCCptPefRgKBVQ2EKpptblUwGFzac8ejCUCihsoVRT6/KpgMLmUx49GEoFFLZQqql1+VRAYfMpjx4MpQIKWyjV1Lp8KqCw+ZRHD4ZSAYUtlGpqXT4VUNh8yqMHQ6mAwhZKNbUunwoobD7l0YOhVMA2sN0AMDIyArfHg363O6jkGRrS/9IPJUV+1mUb2EZu3MD11lakFxcjMTcXCbk5SMrPQ2JeLhJzc/xOSXl5KKqqRE9fX0DAUTDem4SPuplTwDawDQ0NISItFbtiY7AnLhbHz6QiKiNdnu+IjsJOPxPzHkhMwPnqargHBydUi27qcDhw6dIlVFZWoqKiAkVFRbhw4QKuXLmC3t5ecdwJK9IM8gHlzWV4Dxiztxyb8JZZobyxjGtgANujIvFjZAQi0s+gsb0d5XV1As62iBOyn8f8Sdujo5BSeBasc6JtcHAQZ86cwcKFC/H0009j2bJleOaZZ7BkyRK8+eabiIyMREdHhzrdREIC9oHN6XIJSAQuKiMDtdevo6K+DgcTE7DtxHG/IDNApLudzM9DX3//hBJ5PB7ExMTgz3/+M5YuXYrvvvsO3377Ld577z089thjsi8zMxPMx/DKR7ohN5fLhe7u7tHXDCP9/f3o7OyUxOfcJLwMDcHNH5UbHBwFl/tZ38DAwC372I53XrbX19cndTqdTjkPqdjrD4+3t7fL+TBKGBvLsk3uM86Dbs1zM96HkTfYR6nfDs4msNHZoiKxPyEeR0+n4Fjq6V/DaEw0dvqRCJpZ2OLi4nDPPffgq6++QmtrK9ra2iScfvTRR3jiiSdw6NAhCbU8du7cOdTX18vx6OhoHDlyRDqOHdXQ0ID4+Hjs3LlTUmJiouwjUKwzJycHxcXFIDDcCAhdNTk5WY5zH0Grq6tDRkaGtNPT04OLFy+Kw7Len3/+GXl5eQIeYWG6fPmyHP/xxx+xb98+ZGdnC3g8xjbKy8tx/vx5OZeCggIcP34chYWFArmcSIj+2Ae2/n4Jo7tjY8SVkgvywZRytkBCIsPihOlsAWKyMgVKM85mwPbll1+ipaVFOp5juC1btmDx4sU4ceKEAHL27Fls3LgRX3zxhTjfSy+9hHfffVfGdQy1n332GZ599lm8/vrreOWVV8QVv/76a4GGHf6vf/1LyhMmgsAxIkM226C7srPolrt378arr76KtLQ0pKenY8OGDfJ6xYoV8rhp0yYZU9KxCDjP6amnnsJrr70m7b744ov46aef0NXVhcbGRvzwww9Yu3YteC6rV6/GypUrR99TiDiTauwDm8slsP10Mglt3d3o7OkJIDlwqaFB3PBknv9hlLDdfffdMl5jGN26dauAxnHcmjVrxFkYhug23Pfoo4/inXfeERchEASEjvPAAw/gww8/FGdJSUkRuJj/8OHDKC0tlQ4nXISWjkOI//a3v2H+/PkCATuLYZmgLliwAAzf/ADwOc+LzpiUlAQ6KiFiONy+fTsefPBBASk3NxenTp0S6Dgk4ESHMH788cd4+OGH8dxzz+Hzzz+X8lVVVRLCpzRsR5KTMeg15jAjBjursa0Ne+PjwCUQf8dshO2uu+7CI488Is70wgsvYNGiRQIVQ+vVq1fFidj5BIMuQsehczBEEhxOKKZNm4aamhrJy/2E88knn5SJBsMYQxxhi4iIwLVr10CHYn10nFmzZkmo5gyYY0U6EIH45ptv8Pjjj4trso6mpqbRcRmBY/3333+/gGmESzrvP/7xDxw9elRCLB16zpw5+M9//iN18nyNMZwZfSfKazhbp9Mps1FOIP1Nls5GOWbj5ICw+bNkMd4b55u91toaEGx0NnYwx1l0kKioKKxatUrc4NixYwICYSNoDGvXr18fPQWOqzjmIyQc7BtbdXU1CC5DK0Hh+MxwF7ob93MiwnpZPisrS5xr9uzZMuYjzHSrN954A/PmzQPDI52OZTnAZ/0E7d5778Xy5cvlOGfTDMscax44cECWdDZv3iyQ870ZkxbjHEP5SP0Z2ps6O3G9o8NUmlKwsbM5CyUsHKRzEM/OoatwrEXHIRQEhE7R3Nw82k+EjbCOhY0uR0BYpqSkRMIxx10Mk/v37xdXYvjl5GHmzJkS4j799FNxVA7y2XEM0WVlZdi7dy9Ylm0QLALHcSVDN12R47Jt27ZJ4nPmZxjlZIYTHYZVhnw67mRthI3RpKj8IvJLS5Ff5n+acrBxXETYGGIIUGxsrDjE+vXrZexzO9gYlubOnSvjL3YuYeUEgDNPjtk42GdIZNhjKKNL0a04FuMkgW5DV+Vrhtl//vOf4pysg+fCRPhra2sl5PIDsGPHDpm1MtwTNk5seM5G4niOyyccs3EcacBGgCdrE9hcLhRevIDckvPIM5GmFGx0JjoYgeJ4jC7B8RDHOnQfdiKPEQaGJW9nY6cS1L/85S9Yt26dOBGdjJASLI7VuPZGl+Lgnu40ffp0cDbL5RQCwFDNcSPHfZxdcqLANrnsQVflc4JD9yWUBw8elDrpYAylHPexDeajU9LVOENmmQ8++MAy2DjebnM40NLdjRaH/2nKwMa1MY57mDg7ZPrrX/8qszw6ER2JbkXYnn/+eRmse8PGTzThYMi87777JLEuhjiGXHY48zDR7ehGM2bMEHDoQNzPMSDLEByug9HtWI6TCM42eYx1E1LOkLl8YrRL5/I+dz7nB4Xhl5Mbfjg4luOYcbKdzRZfVxkThMM3JwhG55h55Jf5ZicIDFVceecip3cyxjvGGMfoWH53Sqcx9nuHJIa71NRU7Nq1SxaCuYBKN/Pe+Johlc5HVyPE3Fg/QWTid7V8zfoYlgkflzi4hMLjY+tkHTxfrq0xvNLtOCGh43JYQDB53pxw8P1O1ibnbIdvEDgD5YLurphoxGRmIDY7K6B0/OaX+Rnni9Hv/nVm6EtgisROGJu433vzzjf2GPNxHzveGGfdrmONdsbWYewf2+bYOseWY36WNdrlo9E28xr1jlfOu61gn7N+Wzjb8MgIskrOY19CPPbEx2FvXKApFj+fSkZ9U6O88WAF1PL+K2Ab2PiWeOFkW1cX6pubUd/UFFBqaG6Wa9n4CdPNWgVsBRul4QnT5Rg6Ak3WSqytGQrYDjbjxPXRfgoobPbrM9uescJm266z34krbPbrM9uescJm266z34krbPbrM9uescJm266z34krbPbrM9uescJm266z34krbPbrM9uescJm266z34krbPbrM9uescJm266z34krbPbrM9uescJm266z34krbPbrM9uescJm266z34krbPbrM9uescJm266z34krbPbrM9uescJm266z34krbPbrM9uescJm266z34krbPbrM9uesSWw8Z+KeVMXTVNcA94Gf2hocn50g7/iwfundvIe/ZpUg5sMmP11F+af8P5sgVSqZcz/1M5U0ExhC+A3mKYCGJPxHhU2hc30D54FCqLCprApbIF+erTcnTteVGdTZ1NnU4e6cx0q0L5RZ1NnU2cL9NOj5e5cR/w/ow2c8DJA1BkAAAAASUVORK5CYII=;" vertex="1" parent="1">
          <mxGeometry x="125" y="660" width="155" height="262" as="geometry" />
        </mxCell>
        <mxCell id="FBSGdRuwT_R0u97mZ7oI-5" value="" style="endArrow=none;html=1;rounded=0;strokeColor=#3333FF;" edge="1" parent="1">
          <mxGeometry width="50" height="50" relative="1" as="geometry">
            <mxPoint x="320" y="703" as="sourcePoint" />
            <mxPoint x="267" y="703" as="targetPoint" />
          </mxGeometry>
        </mxCell>
        <mxCell id="FBSGdRuwT_R0u97mZ7oI-7" value="" style="endArrow=none;html=1;rounded=0;strokeColor=#3333FF;" edge="1" parent="1">
          <mxGeometry width="50" height="50" relative="1" as="geometry">
            <mxPoint x="320" y="792" as="sourcePoint" />
            <mxPoint x="267" y="792" as="targetPoint" />
          </mxGeometry>
        </mxCell>
        <mxCell id="FBSGdRuwT_R0u97mZ7oI-8" value="" style="endArrow=none;html=1;rounded=0;strokeColor=#3333FF;" edge="1" parent="1">
          <mxGeometry width="50" height="50" relative="1" as="geometry">
            <mxPoint x="320" y="879" as="sourcePoint" />
            <mxPoint x="267" y="879" as="targetPoint" />
          </mxGeometry>
        </mxCell>
        <mxCell id="FBSGdRuwT_R0u97mZ7oI-9" value="" style="endArrow=none;html=1;rounded=0;strokeColor=#0000FF;" edge="1" parent="1">
          <mxGeometry width="50" height="50" relative="1" as="geometry">
            <mxPoint x="320" y="879" as="sourcePoint" />
            <mxPoint x="320" y="702" as="targetPoint" />
          </mxGeometry>
        </mxCell>
        <mxCell id="FBSGdRuwT_R0u97mZ7oI-12" value="" style="rounded=0;whiteSpace=wrap;html=1;strokeColor=#00CC00;fillColor=#00CC00;" vertex="1" parent="1">
          <mxGeometry x="440" y="681" width="120" height="199" as="geometry" />
        </mxCell>
        <mxCell id="FBSGdRuwT_R0u97mZ7oI-14" value="" style="line;strokeWidth=4;html=1;perimeter=backbonePerimeter;points=[];outlineConnect=0;rotation=-90;strokeColor=#FFD966;" vertex="1" parent="1">
          <mxGeometry x="583.12" y="875.12" width="153.81" height="10" as="geometry" />
        </mxCell>
        <mxCell id="FBSGdRuwT_R0u97mZ7oI-15" value="" style="shape=image;verticalLabelPosition=bottom;labelBackgroundColor=default;verticalAlign=top;aspect=fixed;imageAspect=0;image=data:image/png,iVBORw0KGgoAAAANSUhEUgAAAF8AAABfCAYAAACOTBv1AAAQmklEQVR4Ae2dh3MV1RfH/Ut0dMbeu9Kk9w6KKErvhKp0BaQjTUCQrvSOMPADQgollBASSghJgEAChBJCKgmpnN98Dr/73Je8tBfz9vGbvTPr7tu99XtPu+cc4nPiFNsQeM62kZ2BxQHfRiJwwHfAtxEBG4d2KN8B30YEbBz6maX8guI8SXucIln5aVL8pMhGCL0f+pkCP/nRDTl1J1D2JKyRtTGzZNnFSbIieqqsuzxXdlxdLodv7pALD05KWl6K94j4sOUzAX5CxmU5cGOTLD4/XsaEfS19DjeQ7odqSc/AOtIjsI4+9wisLQGhrWTK6T6yOmamhCUfkJTcO25Q5hY+ksLiArd3dv7wa/Dzi/PkWPI+mRs5QvoGNRAA5t4/uLEMCG5S6uoX1Ej6HK6vmzL0SBtZdWmGxKddUHzzix5LWPJ/5F7OLTvxdhvbb8F/VJAph5K2SsCRVtLrcL0yAfe0CbxjI3ocqi0zzgySmIdnJer+URVR1zIuuQFg5w+/BB8q3ZOwVvoebiD9ghqWovCyAPf0vldgXZlw4jvZd3296gTALyjOtxNz19h+Bz7AHLu9T3oF1lPq9QRoZd8hnuCAn0/2lHs5tyUrP13C7wbJnUeJLgDsfPA78O/nJsvYsK4y4mh7GRLa0iuqN6APCmkuE092l8TMeBF5ojiH3Not8enn7cTcNbbt4D958kTyih5LbmG2ZOY/lEupZ+TAjc2yLnaeTA8fWKkNAGxzwRVsGpv327kxpagcpXstI8YFgJ0PtoJf/KRYkrKuyrrY+TI1vJ8MDG6q1gpyHnGB6TgurKsMDmnhpnCpNzCEq5kMCmkmg0Oaa50hoa1k9PEusj52nsSneabuiHuhciX9grDpdhfbwM8pyJZDiVtl2JE2lZbtUPfIYx3Vgpkf+YMsOjdOD1j7b2zUw1dCRkyFp10OahzEHpQ4A9ixEbaAfzPrqiw5P0Ft9sooz56BdWVB1A8SlXJcHhVkKcBFxYVS9ISrSH/DRU/+J9fLAxIRtzlusWy7slTFXHl1a/qbz8HPKcySTXGLpPfhL9xEiadN6B/USDgsnbkXIjmF2QLA3pTUx/fcTrbok6cmaDc5lLjN6369mYu1jc/BP5y0QwHtWwn7HZmPAq6uS+BcSphyjFn4xrjf9ACGXhl1rJPsu77OfPLp3afg3825qf4ZbHhPlG59hxth/40NkleUWy1AjtzeK4mZcVJYXOjqZ2v876rY0SEQwfgT3+rZwlXBRw8+BR9L4+dTPXThVqA9PUP1iIvqFKyaDXELSsn2jXEL1U/EuE83oIHMixwp2QUZ1Rmuym19Cv7ehD/VBofdPQFufQcY+UV5VV6QacDBam7kSIlLO1fKAloTM0vFjhkPN8bo41/J8eT9prlP7j4Ff/WlGeo2MIsu774hdoHX4EfePypzzg6TwKStglVkLel5qSr6sKDM+FA/Zwnm58viM/AxETEv8b+bRZd33xT3W5XBxyI6mLhFffpb4pcIDrqS5fyDEzL5dO9Sog9unB85qmT1Gv3tM/DxrayMnqq+9vJAN9/mR42qtPcxMz9NsGiIbqE8d15dIbmFOR6Bw8zF54MZa8biThxg5pnBHtvU1Esfgi+y/coyPc3C5taFe3rGvr+bk+Rx3YiSlNxkdSEgp9fGzJEJJ7rJ+BPdJPjmLo9teHkl/aJMPtXLo+jj3DEtfECZbWvig0/BD0raoXZ1ZWx8TM31sXM18sRJFurmZBz94LQEJm2XldHTlMoHBDeWH4511nhuzMOIMjG6nX1d3RFK9SU2H2LAT7T0wqQy29fEB5+CH/swSv0yRKY8Ubv1Xf+gxhIQ2lK2xi+RY8n7lWtmRQxxhRPxWk4L76++HTakrJKRn6ocMjsiQM1KT5YWG421c/T2vrK6qZH3PgUf98DehLUyJLSFHm6sYJd8DghtLTuvLlc9wTdCgtyHH20nsyICNIPhekasHp44iGUXZGqwhIBJWt4D5Rg8m9j5uJj7lBn75aDVQGZHDJXU3OqdK6q6Qz4Fn8lBietj5yv4nqjQbMLU0/3Vz5+R/1APZpyKUaarLk3XNJFtV5bJ5vjFwoHpn+s3wUQly4GADJZVRT4kROCYsC4SfHNnVbGrdn2fg8+Mcesuj55SrughPYSoE3k5KF/kMhdgQakcjDxefAtqWMqaMZtq7qa/YUfa6mZWG0kvOrAFfOaJaxfLZOSxDmVuAiCWxx0GSG/v5AAdSNxUbcedF7hrE9vANxPGglkYNbrUocdbQCtqR5QM6wh73+5Auu3gEwDBlHxcmCOYg3Hp59WNjCv537yiU8M1cI7J+jQIU1ip4Ishkpq42w6+dVFsBBYRia81c3kXjLHO8d989ivw/82FPQt9OeDbuEsO+A74NiJg49AO5Tvg24iAjUM7lO+AbyMCNg7tUL4Dvo0I2Di0Q/kO+DYiYOPQDuU74NuIgI1DO5TvgF8agfDwcBk5cqSMGDFC7t+/X6rCxYsXZcqUKTJw4EAZPHiwDB06VKZNmya7d++W7OxsV/3c3FwZNmyYtGvXTmJjY13v/eHBbyl/9OjR8vnnn8vbb78thw4dkoIC97+ZcPToUWnfvr3UrVtXunXrJp07d5YPPvhAPvvsMwX63r2naSCPHz+W1q1by4svvihnz571B8xdc/BL8B8+fKigQvkff/yxjBkzRu7eveuaNA+hoaHStGlT6dGjh9y6dUsePHgg58+fV05hE2bOnClFRUUC+M2aNZNGjRo5lO+GoIcfALZjxw5577335MiRIzJo0CCpV6+eIGashW9NmjSR/v37u3EF1P3uu+/Kt99+q+/z8vIU/JYtW0p8PP8Y2n+K31F+YWGhAle/fn1JT0+XnTt3qvhZu3at5OT8k3lsBT8//5+/pXD16lUF/7vvvhP6MuC3aNHCAb88uisuLpa4uDj55JNPZOzYsSo2UJ7I7O7du8u1a9dczQEfccL7xMRESUlJkcjISAkICJA333xTli5d6iZ2HPBd0Hl+gEqXLFmiinPr1q2C0oTaARTZHxwc7GoI+GxKnTp1pFevXtK7d2/p1KmT1K5dW2bMmCHJycla18h8B3wXdJ4f0tLSpG3btio2+vXrJ6NGjVJl26ZNG3n99ddl3rx5gjKmGPART8OHD5dx48bJnDlz1NSEC0xxwDdIlHNH0Z44cULeeecdVaQdO3ZUUxJz8uuvv1bKx1ZHtFCwdqxiJysry2PvDvgeYXF/mZmZKT/99JOKnOXLl+tGnDx5UrgAvE+fPvLWW2/Jli1btCF2PqYm7x89euTemeWXAb9Vq1aOwrXg4vaYkJCg8ht73BMVY34izxExnHjDwsKkYcOG0rNnT8nIKPvfzwI+m8SB7dIl//kTXyzeL0xNTEIouUGDBjJpkud/mnP79m0ZMmSIfPXVV8oJ586dk65du6pe8LRZZmdxLyC2ODfQxp+KX4CPlQMwe/fulevXr5eJD/6ezZs3a53U1FQ5ePCgHD9+XKx2fsnGWEtYTn/88UepU3LJur7+7Rfg+3rR/jKeA76NO+GA74BvIwI2Du1QvgO+jQjYOLRD+c86+DExMRoAmT17trpysddx8+KvcUrZCHhN+fjeiS5NmDBB8Do2btxYcIZxlCeuikMsKcnzXw0pazqcdCMiItQzSf//78Vr8PGTcLwnYE2GAb72U6dOqbeRUyiZBJxCq1IAnCwE+qupUpN/SbaqfXsFPkGOqVOnqvsXR5cJXFgBw+9upV7cBvv27ZPff/9dg9vLli2TM2fOuEQTfeLNxAFGkOTPP/8UQoc3b9509YN3EzfB9OnTZfHixXL69Gn9BsdER0fL9u3b3TyXuBZIJdmwYYMQKzCF+TIXXBP4fviGi3rVqlWC6Fy4cKG6LnB7UKKiotRFgXi1ujJ4Zg3btm0TvlW1eAU+TjCCGPjXyRioTAFsxBPBEty7BMXhnD179mhzgP3+++/VAYa3Eg4gH+fChaf/5weCJ6SIINKaN2+u2QikiwAuFBcUFKR9ApwpAEME69NPP9Xgi9FBjMn7uXPnalVEHWth0zt06KBjMEfmDAHB1dTH5W1SUmh45coV5dIuXbpo/2bcyt69Ap+g9ssvv6wAmYFYGJMhQ4CLBCVcvYYVd+3aJYsWLVKKQjwRlQIUXML44/Farl69Wt5//331QuLHpx593LlzR4Pq6BUonvf0h4cTsAiac3344YcCEKYwBlkLb7zxhka5TBRs1qxZOs66dU//mClzhZvYSOO8YyxEKu5rAvkQDS5tq2eU+qyBDAsrZ5nxK7p7Bf7GjRs1CQllawqBbkQQ4T+yyAYMGKCBECubUpd6TDQkJEQVNEoaXz4F6sf1S1trYTwWTuYZIgBdwoYsWLBAg+1//fWXbhIbSUyX72z6l19+KePHj1eK/uabb9QCYz6AhUGA2LIWxAwhyBs3bug6IATD2eQBkcDFXEwCF7Fi0lQQl94Ur8DHRfvSSy8JWWWmEIkiqgQ1EhB59dVXNe2DBXFdvnxZo1CTJ0/WeCsbRT2C3kZeQtGAzwYix02BKsloQOxMnDhR2f+XX37R8aBQ9ACch5iAEgMDA1UPwQmbNm1S/cTmkdPD5iFiSMQym4RVtn//foEjWBMbBkfRHg6koFOw5Pr27atcCneTnsJ6vc2E8wr8AwcOqLIla8CAhGyEGlGQiBcm/vfffysFosyQpx999JEunEw0At7IUcBnYyhlgc+G0ZZNgdqwpFD4bArUDxdRoGTGBUSULxkPpKIQ9ULHEIKESr/44gtZuXKltkFcwQmEKNFJcB0ba8CnT6Mr+Eaf6BJEb61atTRf1HCCdliF/3gFPmYmaXooRuReyQJrAhZymUIECk759ddfXfFWUvxYNFRowGehUD7UZbWUoGhANTK65HjmN8oQboIioV7AxOKhL8QboEIwvDdpKGzS888/r++NTqA/OIAxreBTF8DZQDIreGYTvC1egQ+1AzDpHMhOLBFCeSwU5blixQoNhEP5FHTACy+8oCYZv6Ek2Bz5bKV8Dm3IUMJ+KFr6owAAgGHdmMgV4wAW3IZCpNAGjkL0sKlwBqYk5ccff1SljRJFd5gELEToa6+9pkla1KM+3whpkvNpBZ/xSENkzXAS1hic423xCnwGw7KBDaFUKASFhnUBdQMS7IktTYHFMU2hPgCBApHfUA7WiaF8lB314BpEDSIGWUvBhERuI+OhSr4jGjBPjTmKboHbUJToCMxPIxYBGZmNlQZxGEMAmY7pCtiIMnJ/WAtpKazBCj7zYE70/corr2g/Ojkv/+M1+IxHZjDyHSrD/jaUjEznkGQyi8kggFWR8WwWiwMYOAZKNW4IOAKbmxRAKIt6AGtEEMACNpsAdfOM2DPUzZwwWVH8EAZGgClQM8F5LCJktinIa3QGihNKJ/l2zZo1GiemDwjDjE8bcougfExYzjvVKdUCn4GZGKBZL94Z+95MrmQ9vnNZF0Zd8870Z+2HZ/Pe3K3frWOV1a+nuZXs17T1VJfTLIRR8sBlxq7KvdrgV2WwZ70uOgiuQuxg8VW3OOBXAkHEEtYNOgOrDVPWahlVoguPVRzwPcLi/hK9g7nMBmDBWRNx3WtW7ZcDfiXwwori8IgBYaykSjSrsIoDfoUQ1VwFB/yaw7bCnh3wK4So5io44NccthX27IBfIUQ1V+G/GB63FpoojUgAAAAASUVORK5CYII=;" vertex="1" parent="1">
          <mxGeometry x="452.5" y="733" width="95" height="95" as="geometry" />
        </mxCell>
        <mxCell id="FBSGdRuwT_R0u97mZ7oI-17" value="" style="rounded=0;whiteSpace=wrap;html=1;strokeColor=#009900;gradientColor=none;" vertex="1" parent="1">
          <mxGeometry x="801" y="607" width="139" height="60" as="geometry" />
        </mxCell>
        <mxCell id="FBSGdRuwT_R0u97mZ7oI-18" value="" style="shape=image;verticalLabelPosition=bottom;labelBackgroundColor=default;verticalAlign=top;aspect=fixed;imageAspect=0;image=data:image/png,iVBORw0KGgoAAAANSUhEUgAAAHkAAAA0CAYAAACuPJf7AAAK1ElEQVR4Ae1bCVMVSRKe/+R9hUd4H3hseI+6nos6iqAGgouggzNK4LhqLHgHgie466ijriLXDvcx3KAON3IoxyCPSw5z48uJ6qnXvH5H02/3La8z4tHV1VlZ1fl1VmVlJV+RSeNeA1+N+zc0X5BMkL3gIzBBNkH2Ag14wSualmyC7AUa8IJXNC3ZBNkLNOAFr2hasgmyF2jAC15x3Fvyx48f6fnz53Tjxg2+NjY2ug3Wz58/U0REBM2dO5dmzpxJe/fupfLycvLz86P8/Hy39etI8LgFeWhoiEJDQ2nixIk0YcIEq9+VK1cc6UXX8+vXr3M/x44do7S0NP7dv3+f69zVpzMDHZcgf/nyhQ4dOsTKXbNmDcXHx1NmZibFxcXRtm3bqKioyBnduMyzb98+7tNisShth4eH2Yph5f8rGpcgP3nyhJW9evVqcqTckZERSk9Pp1u3blFsbCzl5uZaYfHp0yeCFVZXVxOmflgrpuFz586RABMy8vLyaOnSpdxvdHQ0t+nu7qbKykouFxcXK3LBn52dzUsIZMu/jo4Ohc+ogltAbu9vpaK2DHpee4ee1sRSauNjKmvPpZ7BbqPGbVfO/v37WdlPnz61y9fW1kZr165l3pUrV/IVU/vJkycJQIDq6+u5PigoiNfa9evXK2CiLT6isrIypa28NKDto0eP+BlmERDkbtmyhaZNm8bLyebNm/n57NmzuV+PB7m0PYfCc3zJN2mB5u+73H2U25rML+yuP8uWLWPFwfrsEdZsgAKnDFRbW0tiyhUfiAAZfElJScwHoLDuog5OnSAsBagTFo56NcgPHz5knhcvXohmtHHjRpo0aRINDAwodUYWDLHk3iEL/a0wUBNYW6Cfyt5Nv/5WqrxLwrtopTzWwpw5c1iRjqxiypQpbJ2Dg4NKl83NzdwWFgsSIAMImQAuAL1z545S7QzIkZGR3A7TuCDMEpCF5cAdNGaQMTUfz/jaJYBl0H+qiaX0puf0Y9Xv1mTES2IthtLq6uo0xXV1dTHPrl27RvEsWrSIJk+eTHDgBMhw5GR6/fo1t8daLsgZkFNSUrhdYGAggwp/ANstrOfuojGB3DdkoaD0TboBFmDDopt76qiio8CQ9/T19WVFylOiWnBnZyfzbNiwQf2IsD5Onz6d6wXI/v7+VnyJiYnc/ubNm0q9MyDD2z5y5Ai3xYeIHz7K0tI/ZjVFoEGFMYF8uSRsTAB/k7KUKjt/UV4lsT5BKY+l8PjxY1Yeplwt7xpWumDBAsKULU/rmEah+O3bt/MQHIEs1nMwOwMy1vOdO3cSpmgESNwZnBE61AVy/1AvvfutmG5Xnqfo4lAKydzmMthn8w5QXfdbMQ6+Yto2ivbs2aMADWcnKyuL7t69S5cuXeJtDfqBFQLQTZs20bNnzwh8wmnDtApyBPK1a9eUITsDcnt7O/d58OBB3rsDaHjnCN64i5wGuX+4j25VRFLgz+tHAXr433+iwPQNo+rFdCxfr5ed5u2UrRdKe29/y2OrjVYdLDgkJIQVKqZFXLF1QagRBJ6zZ8/y+ivznD59mtdj8DgCWY5kOQMy9s7wA+T+UJ4xY4bi5Wu9k956p0B+b6lxyVoj8v0IDlX+h1R621nEv9ZexzHjio58em+xv+1x9UXhYAFUWExBQQH19vaOEtHa2koIP8JTLiwstHqObQ3aVlVVWdVjTUd9U1OTUo+pHnVij40H2Iuj7sOHD9TX18frL5aRV69ecT2CKIjILVmyhLdRWLONJocg13e/owMpy5yy0h9+OUItPfUuj3Fw5PeQHz6E4IyvKbP5Xy7L+H9o8ObNG7ZgfFBqgmMHL1v+QNQ8eu/tggzln8j6s1MAv6qP1zUG2XLhrYupPbLAnwZH3BMc0DVQAxohRIqgx6pVq/jwAiFURMIQJsWUfeHCBQN6GS3CLshwrITS7V3j30WNluxETc/gJ8puSVQ48VHJ/UQVn1CejZdCRkYGT9liTcY0jT04HD94/O4gTZD7hnqsFC4rX122DHbpGltMeQQNDPcpbRHbVstOff9EeW4W9GlAE2Q4TGqF27qHk+UqwWKjikOopC3bqmmjpXpUn2HZO614zBvXNaAJMgITtkBV18VURLjUa9fnDvo+7xs+nVI3TG96YbPPqq4yNat574IG7ID80KbC1SBfLf3W6e6SGv5Bh1J96J9VfwQQ5MZ/L/6rzT717p+xXcI5Lva67vBa5bF7clkTZGen6+CMzQ7fD5aIaRcfSErjjzb5G7p/tQkw2uS0vLbZRqsS4AYHB7MnKxwcbE8QSvRG0gRZ3s6orVd9n2bDOWq0VNFPNXH0fe5+Bg+hT3m7JCsbfX2bs0cTZPlIUm6nVT516hRvSXD4gG0JIl8onzgx/rx1LR3I9Zogg+lm+RlNxauBjqv8geAtwxHzS/XhdgiiIIxZ3JYl92lVxlFleM5fNPs5lm59jmvVWONGHDXaim7JTRBHRqoQ4s9ICFAf2iNC1tLSwk0QNbt9+zafFiGChYiXTDiTRj3i0IJwPozDEshPTk62OizB8gF+cYaMZQV7ZkTojCa7IGMfe/TntZoAAGjErZt6aull3X2FD55zbmsSDQz32xwvwqTYGl0sDFLaqD8acR+vI5lg69atbMlyXpV6IBUVFTR//nzmE1P68uXLqaGhQWFF4AKH/OJQH3yXL1/mNsjxkgkfCZ4jdQhUUlLCCQlCNq5IMRJhUMTNURcVFUWIdgk+jMtosgsyOkP8WSjc1hWeMgjrpq3nY6nDFK4nLwyBBSgNIOI0Se104cQHWZxTp07l9B1Y/MuXL/ke0SdBAHnWrFmETJOYmBiWBcvD+o5jSjl4cfjwYe4T1g+rXrFiBbdNTU3leLlIA0IONgizBsYI+fPmzeNEQlg7omJGk0OQ0WFeawoFpK3WBBF5Xf5pqzSf6wE6uiSUsFbrJSgMyoMiEVXCtClAQU406rFWy3T06FElIwT1ABl522/fWh+JijUfhwsgnCzhXBrAgkTWyMWLF/le/NmxYwefguFegIw+HOWiifZ6r06BDOGIat0o+44OpCw3FEz1B3CuIMAqkUDvi6EdrALnx7A8gHr8+HEW9+DBA77H2fHu3buVH9J+wIeTIxAAWLhwIZflPzipAl94eDhXJyQk8P3Vq1f5HilBeA7fQJYvPjqMCydS4MEY3E1OgywPpLqrnJIbHynHiOI4cSxXLc9b7ldvGc4MrAxKRUYmHCiUETOWc55Fuaenh7sCyADKFmF9xTSOqRmZHpCHJEAQ8rdxHxAQYFM+ABYgr1u3zpZ4Q+t0gWzoCP5LwsLCwljx8JLFdKp2ntRDsQey+JcYsdYir0yQcMLOnz8vqkZdTZBHqcT5CnitZ86c4dQaOFj9/f3sXC1evJgtD8+hYFgisjHkLQ+2VDk5OUpn9kDG1grW6uPjw1c4e4LQLxLv0R6JCGJmwDIg5JsgC23puAqHBgDIPyhcJMdDbE1NDZ/ryjwoY4oVZA9k8IhzYKz5+HhkgjMllgi5DyTlg0yQZW3pKCMNB1mUYo3FFfFrNWHrhDQcwXvv3j2rzE04UrayOIQc7MMhW/4vCvEMV7E1g3wkDcKKRRAF1o62cNrcTV6zJrtbkZ4s3wTZk9ExaGwmyAYp0pPFmCB7MjoGjc0E2SBFerIYE2RPRsegsZkgG6RITxZjguzJ6Bg0NhNkgxTpyWL+AwpxqbJQtqP0AAAAAElFTkSuQmCC;" vertex="1" parent="1">
          <mxGeometry x="810" y="612" width="121" height="52" as="geometry" />
        </mxCell>
        <mxCell id="FBSGdRuwT_R0u97mZ7oI-19" value="" style="rounded=0;whiteSpace=wrap;html=1;strokeColor=#009900;gradientColor=none;" vertex="1" parent="1">
          <mxGeometry x="801" y="675" width="139" height="60" as="geometry" />
        </mxCell>
        <mxCell id="FBSGdRuwT_R0u97mZ7oI-20" value="" style="rounded=0;whiteSpace=wrap;html=1;strokeColor=#009900;gradientColor=none;" vertex="1" parent="1">
          <mxGeometry x="801" y="741" width="139" height="60" as="geometry" />
        </mxCell>
        <mxCell id="FBSGdRuwT_R0u97mZ7oI-23" value="" style="shape=image;verticalLabelPosition=bottom;labelBackgroundColor=default;verticalAlign=top;aspect=fixed;imageAspect=0;image=data:image/png,iVBORw0KGgoAAAANSUhEUgAAAHQAAAAwCAYAAADAU15dAAALkElEQVR4Ae2bh18VSRLH938y56xnzjmf2VMxrzmdWfQ+njmesup5Zl1d14CCBJGFRRQJcqIuKkpSECSI1t23vZ7t95x5DI/nfs7nq8/nMTPd1WHqN11dXVV8JyEKKgl8F1RvE3oZCQEaZB9BCNAQoEEmgSB7ndAKDQEaZBIIstcJrdAQoEEmgS/wOs+fP5eXL19+gZ5r7zIoV+ijR49k27ZtMm3aNFm8eLHs27dPrl69Wrs0AsBRUlIiDRs2lB49egSgt7p3EXSAxsTESIMGDdSvf//+0q1bN3U/evToukvHjxbv37+XBQsWyJYtW/xoXf8mQQfo2LFjFYBXrlyxpPPs2TO5e/eu9RzMNwEF9Nf8W3IofaOsvjNZJkd2Ur+5twbI+l+myb77q+X8o39IUcWrLyrPPn36KECrq6sdx/n48aPs3r1bevbsKY0aNZLBgwfLyZMnPfgp37Fjhzx48ECmT58ujRs3lnXr1qm+Dx8+7MGbmpqqyuH78OGDuh84cKDFQ9nRo0dlyJAh0qRJE+natavMmTNH8vLyFE9VVZWsWrVKOnfurMYZOXKkoGn8oYAA+u83abIu8S8WiBpMp+uxzK1SVl1qzfdxSaZ1X9+bZcuWKYGyfxYVFdl2t3nzZsUzc+ZMuXXrlsydO1c9I3RNADphwgRp1aqVtG7dWt1nZmaqDwCBm7Rp0ybVnn3aDlA+DLaBDh06yPr169V4fHioZ2jKlCmqnrro6GjRWubOnTvmMK7u6w3o9d9OuwbSBHhJ/Eh5WZ4reeW/yd77q1xN1g3Tq1evZNiwYUpATZs2lUWLFklubq7V9OnTp9aqRPgQV1ZUu3btLD4ABYRTp06pel0RFhamyvXqYrV36tRJ2rZtqwDyBhQjqVmzZsJc8vPzdTfWlQ+KcRYuXGiVvX37Vn1I48ePt8rc3tQL0H9l7fALTA3srOi+ciP3rCS/uhVQVYxQIyMjZcyYMUpYqMvTp08rmVy4cEGVUbdnzx7rN3ToUFUOABCAApI3Xb9+XfFptZuYmKieUceQN6Dp6emqHm1gRxhPADp79mxrLswLtYwKriv5DWjM80v1AhNQNyfPkeoPlVJZ806ics/Xde6u+E+cOKEExlGioKBAAAIB9uvXT6lR1Kr502oaQPv27fvZGKhJgNZqd/Xq1aq/tLQ0xesN6O3bt1U9e6QdLV26VNUPHz7cYx7MacaMGXZNfJb5Dejh9E2yKmGC36DuTF3qMbGLOT94PAfyYf78+UpoycnJcunSJXV/4MABn0M4AUqjDRs2qD5Q3+3bt5cBAwZYfXkDmpWVpXjZp+2I8zIfGHtnIMg1oOx3rMqTD3fJ31MWyra7i+SHjC2C2l2ZMN41sFi89ws/3+wDASir59q1a1JeXm7Jhj2OMyhCw3vz4sULtZ9xPmWvMqmwsNB69AUoli/9sT9zjYiIsNp5A1pZWamMoebNm4vZf0VFhWDdYvjQx+TJk6Wmpsbqh3lrbWEVurhxBeiPOYd9AhYW1Uum3+z+Gc/MqF7qyHIgba389PioMoKc5nQnL7Le+yjCQzjsmViKqK1evXqpsjVr1lhD79+/X5V16dJFsHhXrlwpOCHYxzT5AhQejCjGQZWbgvcGFN7z58+r8TCetHrHctbuQbxZzJs5bN26VXm3+OCwjutKPgEtqSqu0+oDuPSipLrOQfHnlGTI6ey9frXVjRDmkSNHlNA4bnDmY29CoHzxJmEkoSoBBWAB0zwmsGLY35wI4wpwOLKYxDiUr1ixwiwWzqqzZs1S2oGPDGOIFQoxb87FlPMhcT7m+JWdne3Rh5sHn4CiVrVF6uu6MHaYPHx9z814Hjzl739XeW+qitRYS+JHSVphogdf6MG9BBwBvZl7zhWYK27/WcqqP5n67of9xJlaEG81wdI1P5oHRb9YdaEb9xJwBPT72CEeAjaFbd7fK0hwP5rBmfwqWvLKnlolHF/MfmdE9ZAXZU+s+tCNOwnYAvq6ssBDuKagzfvvYwa7G8WL6+HrVOXXNYsLK15+Nub+tN8NGZM3dO8sAVtAcbKbwDnd++Oy+zU/RhbFjZCKmnces8osTrEd8231Gw++0INvCdgCeunxEVvhegN7OD3cd+9GbVVNpbJiZ0f3lSelWUbNp1ssXO/+eU4vSv6MN1TgLAFbQBNfRtoK11vgm5Ls/ZPew9Ef6plQ2rO3Od7V6tlpz07Jj7XlDxXaS8AWULxC3uA5PTvFNznGnMreIxqoIxl/k9Kq17azuPzkn47j3c2Ps23jVJiRkeHh5MZ3GxcXZ535nNr5Wz5o0CB1bvS3faDb2QLKIFiZTiCa5cRBiysL5Glptoqc7L3/V0GtwgOYp7J3+7RWY5//5HMc7722NgGcOXNGeV3wvJg/HA1EYAJNOPDJH/J2XDiNExUVpQLmTvX1LXcE9GJOhE9Ba1B33VsuYVE9PXgBNaOWvS+r+K4cfLDOo53uU1/pu66kAcWFBpF+cvDgQeWBwZ9q+kvr2ncg+PFItWjRIhBd2fbhCCjchLe0cO2uG5PCVKdxL362+CLSw+XHnAjb34VHh2Rn6jK1l9r1Z5bhBzbPqbaztynUgBLFMAlXHisW57ymsrIy5TsldQRBk4aCG84kVhS+Xu2D1VedBDZv3jyPMBcpnDjrSTHB1bdr1y6VTkLAAN8swW7ce7qfGzduCOkyPJPxQO4T402aNEn27t2ryuExCTci/LgLvcknoCVVRT5DZDjkcRCEJ8+yADVBqc+9v+4/Dai3Y3vUqFHSsmVLa4W+efNGSANBFSNAAEXQZiCaEBsfATFPhKpTQwARoUIEoekDArSOHTuqlBU0BEFvsifWrl0rAA0I9IePWQfXiaPqoMLUqVMV4GRO4PyPjY1V/KSomERslX7MRDhd7xNQmGo+vheiLVNv/CngoNkBvjZxquCo95fOnj2rXhbHelJSkop/EihGAKRXatq4caMqI16pSQe/MaIgoiNmsldOTo5qs2TJEt1EAUrkBNJhNaIndsQ+yzy8VS6hNMr5sfJNLcH4lOuIDiHCNm3aWCkv3uPUCqhuoOOhJx7uVLFQ1HGgfuyVnH39jdToOXIliqKFY15ZJTq6AZ/OAwJ0/SNJjDaoOohIzIgRI9Q9f9iPqTcBY4VqQFHhZDPAQ45QQkKClQhGeydA9Qol6uNtXOk5HTt2TM3j5s2bqn+d8mJN7n83rgH1bvj/+qwBHTdunFJrOqPODI0BrAm2970OibEHUsfHYOYomdayCSgyIYeod+/eVv/kBpEpATkBqleoXTI4OU58WORAQTqojjawo6AFdPv27ep9i4uL1R5HjJGVACFYhNS9e3c7mVhlCJNjCaDCzz5MCotJAIoKNAmVSeYEeUe0ZU9EVdYGKHu0HbHa6YeUF/Zrzr5OFPSA8uLHjx9XAiE7QZNOS3H60uEjMA6Qr1/bO0TgsQNUjwGwOpuQDwvCIML4AmBNeoU6AarTVHTOsZk/rPvQ128CUARLdgLpIiRLQxwP+OqxShEQhhBWLULFIoW0lYsFrK3SixcveuQGAahO98TyRcWTNREfHy+XL19WdVjTmnRqKZYyfd67d09qA5SVrbP8eQf9ceg+zes3ASgvnJKSogDEatTOBfZC1CXA6h/n1dLSUmVpYvWyonSdeSU9EzIB5UPQK1Lzoh5xR2oi6ZtzL+dReM6dO1croLTlP+jg53zri4IOUF8va1eHgcTRhZViZgseOnRICZBVpvfed+/eqb0RwZLK+UcSDgrGrS3d85sH1AmU5cuXq73OBBle1CqCZfX+UUS6KZqErEDzjGo3fghQO6n813hhZQIc51D2Ogwq/T8z/LcaavlLk/ZOYdkyFzf/EhkC1Acq/B8L+x0uO/6bLTw8XKk8X/+q6KO7OlcB6MSJE5WjgyOLGwoB6kZKXxFPCNCvCCw3Uw0B6kZKXxFPCNCvCCw3U/0PgSCU7o1rLkwAAAAASUVORK5CYII=;" vertex="1" parent="1">
          <mxGeometry x="810" y="681" width="116" height="48" as="geometry" />
        </mxCell>
        <mxCell id="FBSGdRuwT_R0u97mZ7oI-25" value="" style="shape=image;verticalLabelPosition=bottom;labelBackgroundColor=default;verticalAlign=top;aspect=fixed;imageAspect=0;image=data:image/png,iVBORw0KGgoAAAANSUhEUgAAAGoAAAApCAYAAADd7bxVAAAKq0lEQVR4Ae2aeWzOXRbH3z/R2re2T6toLUVNqKldaA2xDoI/5g0hxBoJCbGOLfbYlyDUHsu8ltcyYo/YIkJsMcjMUGu176Boa6ucmc8Z9ze/5+nvefo8rYk0fje5bp97zz333PO959xzz89P4pYSoYGfSoSUrpDiAlVCDoELlAtUCdFACRHTtSgXqBKigRIi5je3qOzsbLlz545cunRJ9u3bZ1V+08+4W0LXwDcDChAWLVokPXv2lIYJDaRatWpSpUoVq/Kbfsahg94twWug2ECh8BkzZkidOnWkYsWKEhkZKdWrV5foKE+BSj/j0EHPPBew4MAqFlAHDhyQxEaJqngDTownWqg1omMKVDMGiNADGPPh45bAGigyUGvXrlX3hsI9UR6/4DgBRh+gMY/5uEX4ucW/BooE1ObNm6Vq1ariiYxSRZcpU0aoKN0fMPZ+6Oxz4AM/+LrFWQMhA3X58mW1ABSLwlu2bCnz58+XAQMGWKDZgTCAGCBpsSbouaOYDz38sKwTJ044S/qD94YEVEZGhnTv3l1KlSqlyi5durRMnjxZ3r17J69evZLTp09Ljx49VPlDhgyR6dOny7x587Tld5s2bXT8zJkzSv/27VuZO3euwAfwACs1NVVYJ9gC7cGDB2X9+vWybNkyrVu2bBEOVE5uXrBsvOh4Qjx79kyrLw9+m7FQ5GSBQHy9BHD4ERJQ3CPlypVTl4crA7BVq1ZZbD9+/CiPHj+RBw/T5fXr1/LmzRsBDFp+P0xP13HoTNmxY4fyMfdW2bJlZdOmTWY4YLt//37p0qWLRpJxcXFSu3Zt696Mjo6W48eP63wUy6GZOHGiKjkgUxF1wYmJiUL99deDXuR37vxN+5slJcn48eNDOgzr1q2z5vLGDKUEDdSLFy+kffv2eurNfQNQS5cu9Vrvy5cvQnUqTmOADx/DE6tincIexkSKUVFR0qBBAz04WGTdunUloX59/Q3P69evqxhLlizR91zlypVlwoQJ2odlHDp0SCNOWntZs2aNWjmWzkGyl1u3bukY7nr48OHyLifXPhzwb3QFT+b68g04UST4zxzHjh0TTjsKMUpFGatXry5sjYDj27Zt8wIK/qyDO/NXsFBcZHx8vMTG1NBHNIEIrpfKaU1LS5PXX7Mg27dv1wOGvMuXL1e2zzMy5HeNG4vH45EWLVp4WQZAQcuh8VUoQDGGnEUBCp7/V6AIGBDQgMRiHTp0kCdPnvjTZ1D9mZlZ0q1bNwkrU8bizTrm5Dsx4f7BBQNSm9Zt5ObNm5KTkyMfPnzQmpeXp7+NZWdm/aYHCjedkfFCWeIOmzZtKlGRUdKsWTO1YA4AxQDFHnft2uUlggEKPRigsE7mmvlmgumnpWBR8DRAQX/v3j2thsbM9W2Dcn0w6dOnjxdQRG+4rfz8fF+eIf1GmYsXL/biTeqpV69eBTZuGG/YsEHp2TDpqM+fP5shx/bkyZMyaNAgrVjwlStX9L7CbdarV0/d5+DBg2XUqFG6ph2oFStWyPPnz1WZtEePHlU3agcKeZhPRfEUQJg8eYr20aJDAxQuun///jrWMTVVqKNHj7bmOm0iKKCIbho3bmwJiJCcetzMtygo0tdamzZpogpy4j9p0iSVJdrjEQIKCorA3dmrcVs7d+4U7icqkSHg8hRISEiwKlkSxgFj69atKg8Kbd68ubRq0VKaJ/+3bdY0Se9CO1AEKcynXrhwQeWBD1FuTEyMtty5BijWpR963HzNGrESGxsrAwcO9Hs4gwLq8ePHEhERoSaLgAaoGzduOOkx5L5z584VAIrNsK5TGTlypCWLCQRQBPcNtT4BhcejCgJA3JdJEM+ePVsz+zwrEhs1UqBoZ86cKQQd2W/eqqfg4CAD7tW4K9PSbweK6M/wZy8UXCtAcZho7UDBc9iwYXL48GEhEsQFcyji4+L0WeG056CBMkLagTKnx4lxKH1HjhwJCagxY8ZYytuzZ48u9fZdjp5+LIBNR0VESuvWrTUq2717t0U/a9Ysef/+vaSnp+vdFFujhtLxDkSZuGLj+hj7+U8/C3NMHTt2rNDvC5TRjx2odu3aKR2tHShokRs5eL7w8DeGsHfvXkfVBQXU06dPpUFCgnWKjUVt3LjRkWmonTxWfV1fUlKSsK5TWbBggZWyWrlypZKg4Nu3b2tmg7nIiIIIn32BYgKuKTk5WelosTxTDFBhYWHqSgHR1IsXL1p6MMEEFlUUoMx6RKUmc4OsTiUooHAHf/zPdySY2S2KCzrXtkGnBQrrYz587ECxTufOndUNOc3nqQA9WXi+b5kMAYFNVlaWBUAgoHBNdqDybW8/AxTuzNxzRg6iPqOHQEABbCCLsgPCGuwHsO39Zk3aoIBiE3PmzPFSJq6FNwFuqziFgAQ+8LMfAtybXXn2NQCGrAH08bXjZOjQoXL16lW5f/++RnS8jwqzKDtQ0BuwWccAheKcgDKHygko47ru3r1rHQRf18cB426iEB2OGzdO90+/vwAtKKBgaE6xUWZ4WJgCl/z7ZDl79qwuGuo/zGuR3NwrmoQ/iuCi9VewHEJiFAl93fg6evE3+hocmMsei7G7PiyBu4bCicdqmQ993759NUTOzMy0gILeH1CsDVAcpoULF6qV8TE0NSVF+XTr2lUDGvjbgTLWSPRISI434cs3dE2aNJEHDx44bjtooLJ++5cuGB4Wrpf11KlTrd+8RRD22rVrwkZz8/7n7+2r0s84dISqzGPDnCQEpcKfjbFeoMLlzMlPSUnReSbqouUrMgEF0WF+/hd1JyiIA2CAAmyyGdBBX6FCBQ2RiTSNRUFfGFDIyL2FhcOHtBYy1IyNla5du6psdqDg2apVK63QVapUybrfeJB/+vTJcdtBA8WGYcRCCMR7BCvr16+f9hEON2zYUHr36iWHDjlbw1+PHtVx6EiaRlaP8AIJoOCPolivsAJYPBF4xPJonjZtmh4Y0lqE7SYY4RFKopdq8n/wZj50zCXLz7zs7DfCPWTozQPWyPLy1Wsd461l3BSZELyDkQFeyETGhJZ7h0c5v+F7/vx5BZdAaMqUKSoz70Gs3F8JGigYPHn6TDp16qRmXqtWLc2pISwpGBRMrRVb0+//gyAjwLie+uoRlhVZ1hQeLm3btpVHjx75k7dAPwogxGWTBBIvX75UAFCeKWTroaHaM/eMQ8dcM48DEoieccPLdw27DNAY2fibYvjSUjkoRmY7LyO3vQ0JKNwFVoQlAMofOnZUn8p9MmLECH1Z/3naNM232Rcxf+P2zIdCA45pcYFkBkjRFJYSMvx+pDYkoFBMbm6u5QIrlC+vL3ouwL//459qSQ/T/VsDJ4hErgkC7CDxZsEVwN8tBTUQMlCw4CMgwYDeMdHR0rt3b01yEsLzGSE3733Blb7eCb5AhYeH6z0FP/i6xVkDRQIKVvjjX/7yi6ZfypcvrykQAgTCXH8f0+wWhVWVDQ/X+ZvS0gJepM6i/1i9RQYKNfENiACBhCaRHPcWH/QCAUUuDjdHNp55zAdAtwTWQLGAgjUXP5ELCVqSi7g+gg6nAi2fGKA7deqUznMDBydNFewrNlCGJQonqgO0QAUaKl9j3RK8Br4ZUMEv6VIWRQMuUEXR2neY4wL1HZRelCVdoIqite8w598LZJ1dpECzLwAAAABJRU5ErkJggg==;" vertex="1" parent="1">
          <mxGeometry x="572" y="522" width="106" height="41" as="geometry" />
        </mxCell>
        <mxCell id="FBSGdRuwT_R0u97mZ7oI-27" value="" style="shape=image;verticalLabelPosition=bottom;labelBackgroundColor=default;verticalAlign=top;aspect=fixed;imageAspect=0;image=data:image/png,iVBORw0KGgoAAAANSUhEUgAAADEAAAAzCAYAAAA+VOAXAAAGXklEQVRoBe2Z+28UVRTH+Tt8/KAhDY8+BBRU/AWxBGj31W3LggVBEujDPqEoCKIooCCaSCUhaDQSHgYNryhQAuWNIERAioKJxviTWODO7E53Z8vyNecOdzqznZmd3Z2NhjDJzT0zO/ec87nnnvuYHYYH4Br2ADDgIcT/JYoFjUTq1k2oZ3ugnj+FVFQqGHPBIJK9lxBdMRdyaw3k9ghia1qQuvVPQUAKAkEAclsILFAMVv2MVoJliL7bVBAQzyGS1y5Dbq8C848Gq31usNRMACOQVQ1I3fY2Ip5CJK9chNwRHgogYAjEX4LY6mZPQTyFULZtBit/dLD3hfPG+n5EYu81IXW7z5Mc8RRi4NplRN9uBPONygxCEVnT6glI3hDJX64gvneb3qMDv11DdGWDO5BAmTZr5RmRvCAIQF5cCza3HPG92wdBbvQiurIebPpwsJrxWjEOKSHzHClGbG1LXhHJGSL568+QO2eA+UeBhZ8Gm1eO+L4dgyDXryK6fD5YZCLYnMlaZAhIAIhagLzfhtSd3HIkJwgNIKIBCGc4yBTE9+00gSS6d0M9uh/xHV1gsydbR0UHac8JJGuIgetXIS+ZaT3mBcj+r3UQIdyLKzxSrHLk0GhQRwiQdR1I3bklmrmqs4LgAK/PAvPZOELOhMZCap1paZxA2CsvWkfDBLIoKxDXEHwlfuNlZwBypHo8pKZqSwh6KLXN4u8MyQ1qK0ACpYh9uNg1iCuIgRu9kDsjmQGEE5FnkVKiliDRj1bAdkgJEKoJ5INWVyAZIWgajS6d7Q5AOOEvRv/WLksQHtE359tvTYQOqn0jEduwBCnmnCOOEHwdyJQDRqNCpiSNTET/1k/1aAz89Ycuc5Blr7oDoYis70CK3dbbpwu2EHwa5Tkwwno2EQ7b1aExkBrDur3+vduROLhbv0/2Xoa8dB6Yv9h5QST9vhFQNiyyBbGE0ADqeGPbBLRzXjynBG+N6E4rX24Eq3shDeQSB5HaZ4IKC5baz1wcZLElyBCIJK0DlAOVOUbABqJ/xxawqU+AzZ+GxKE9Olzy6k/aEfZsD+I7N4HVOUzBlSOgfNw5BMQEkVJikJfNyR+AQNIiwSECJWDhcXyLkjhxSAcxCvFvvrBeSEXnVBRB2fiWsYn5kw31CpvyeG45IIyI2g6Cfg+UILp+mckRcXOvPwZWNcZ+WNGkMfVJ3O37WzQxQ6g/ngIrf6zwENXjbSHIMzbjeW0bIjokvX7pEdw1zHbm4dR3E9KCqfwsnHNCC4NOkaiZAKnBB+r19CvVdxPMl3Y+FzqpDpRAbgmZ2pogSGHi1GFITaH8QZwgyBnfKMR3fY4Uu6NzEIDS9Y427RodF3KgBFJbDdQLp/U2JAyBoIfq6SNgDf78QDJB0NmibhKUjcsR3/MV4rs+g/LJcrCqcdbDmQBawqAhn35ZQtBLNHtIjcHcQTJBUO8SSGWRdnAimRY+0evGmgBaq6GeO57uP7+3haBf1ZOHcwehFbttlm6UT7EVRdZOWp34BASPQDXU8yd1XemCIwQHOdENqSEAFnzK2gFhzFiHx/G8ShgOR8lL5yHVV2rrhPFdJ1kMoXMn0v023WeEyAmkogiJYwdMhoQeV9twAiOA5rDtEDIqdwXBHTh+CFK9HyyUISK0GM2ZZLRhktlcOmdPcI5qoBRScxXUH46Z2trduIYgBYnjB7lyRxBK6OZaO3uQOuqcT3YE8FrINQAZygqCGtD0K9X77CNCSRoea/kdiT5bshn3ZyWrXOAAQb4htO0Fix+yhiAdiZ4DvLdsI+IfDWXzWgz8+btukuT+LevsD0KBUsjttVDP9Oht3Ao5QZBylVb2hZX2EaET2YalSHy7mZfY+k6wqrHWuRAshdQUgHrxjFu/Te/lDEFaEke/g9QUtAchpyuGayVQagsg01bi9BGTY9nc5AVBhtST3ZAaA2ChMdZOWo198SxYpq3EaXuhbADo3bwhOAjfomQJ4hGAZxAchNYRt5tGArDZzJGubC9PIiGMqrSOLJzuvGnkAFWOeyGhz23tKQQZpe2GVF9hDUIAzSFPAcim5xAchHJkwTQNhLYYVPyjNYAMmzm3vW98ryAQHKTnez7u6asHnRvoX1W784DRoVzkgkGQM+qFM1C6VkHZtBr06bJQV0EhCuV0ut6HEOk98l/d/wvy1OayJ/q/igAAAABJRU5ErkJggg==;" vertex="1" parent="1">
          <mxGeometry x="689.57" y="522" width="48.43" height="50.41" as="geometry" />
        </mxCell>
        <mxCell id="FBSGdRuwT_R0u97mZ7oI-29" value="" style="endArrow=none;html=1;rounded=0;entryX=0;entryY=0.5;entryDx=0;entryDy=0;strokeColor=#CC0000;" edge="1" parent="1" target="FBSGdRuwT_R0u97mZ7oI-17">
          <mxGeometry width="50" height="50" relative="1" as="geometry">
            <mxPoint x="739" y="560" as="sourcePoint" />
            <mxPoint x="789" y="510" as="targetPoint" />
            <Array as="points">
              <mxPoint x="760" y="560" />
              <mxPoint x="760" y="637" />
            </Array>
          </mxGeometry>
        </mxCell>
      </root>
    </mxGraphModel>
  </diagram>
</mxfile>
